# xmcd
#
# Track frame offsets: 
#        150
#        11037
#        21162
#        33987
#        44487
#        54087
#        65337
#        80787
#        94962
#        112887
#        123162
#        133587
#        144162
#        155937
#        166587
#        176637
#        188037
#        199810
#        208737
#        219912
#
# Disc length: 3052 seconds
#
# Revision: 3
# Processed by: cddbd v1.5.1PL0 Copyright (c) Steve Scherf et al.
# Submitted via: ExactAudioCopy v0.95b3
#
DISCID=130bea14
DTITLE=Various Artist - Good Ole Country Chrismas
DYEAR=1977
DGENRE=Holiday
TTITLE0=Charlie Rich - White Christmas
TTITLE1=Tammy Wynette - Joy To The World
TTITLE2=George Jones - O Little Town Of Bethehem
TTITLE3=Tanya Tucker - Silver Bells
TTITLE4=Lynn Anderson - Soon It Will Be Christmas Day
TTITLE5=Johnny Cash - I Heard The Bells On Christmas Day
TTITLE6=Jody Miller - What Child This Is
TTITLE7=Marty Robbins - Hark! The Herald Angels Sing
TTITLE8=Ray Price - The Little Drummer Boy
TTITLE9=Jody Miller - Oh Holy Night
TTITLE10=Chuck Wagon Gang - It Came Upon A Midnight Clear
TTITLE11=Carl Smith - Silent Night
TTITLE12=The New Christy Minstrels - Do You Hear What I Hear
TTITLE13=Sonny James - Away In The Manger
TTITLE14=Johnny Cash And Tommy Cash - That Chrismas Feeling
TTITLE15=Lynn Anderson - I Saw Mommy Kissing Santa Claus
TTITLE16=Jimmy Dean - Blue Christmas
TTITLE17=Anita Bryant - The First Noel
TTITLE18=Connie Smith - Go Tell It On The Mountain
TTITLE19=Patti Page - We Wish You A Merry Christmas
EXTD=
EXTT0=CHARLIE RICH
EXTT1=TAMMY WYNETTE
EXTT2=GEORGE JONES
EXTT3=TANYA TUCKER
EXTT4=LYNN ANDERSON
EXTT5=JOHNNY CASH
EXTT6=JODY MILLER
EXTT7=MARTY ROBBINS
EXTT8=RAY PRICE
EXTT9=JODY MILLER
EXTT10=CHUCK WAGON GANG
EXTT11=CARL SMITH
EXTT12=THE NEW CHRISTY MINSTRELS
EXTT13=SONNY JAMES
EXTT14=JOHNNY CASH AND TOMMY CASH
EXTT15=LYNN ANDERSON
EXTT16=JIMMY DEAN
EXTT17=ANITA BRYANT
EXTT18=CONNIE SMITH
EXTT19=PATTI PAGE
PLAYORDER=
